<?xml version="1.0" encoding="UTF-8"?>
<svg id="Layer_2" data-name="Layer 2" xmlns="http://www.w3.org/2000/svg" viewBox="0 0 270.27 297.47">
  <defs>
    <style>
      .cls-1 {
        fill: #0d0b08;
      }

      .cls-2 {
        fill: #cca969;
      }

      .cls-3 {
        fill: #414042;
      }

      .cls-4 {
        opacity: .7;
      }

      .cls-4, .cls-5 {
        fill: #fff;
      }

      .cls-6 {
        fill: #343736;
      }
    </style>
  </defs>
  <g id="Layer_1-2" data-name="Layer 1">
    <g>
      <g>
        <path class="cls-3" d="M228.21,106.81l-.1-.68-12.13-86.83H65.58l-13.14,86.1-.11.7h0s-.1.7-.1.7l-.03.17h176.03l-.02-.16ZM106.77,40.49l18.7,32.39-15.9,22.23h-2.8v-54.62ZM128.59,78.28l6.54,11.33-3.34,5.5h-15.24l12.04-16.83ZM179.81,40.38l18.74,32.45-15.94,22.28h-2.8v-54.73ZM78.68,77.82l12.37,17.29h-22.35l9.98-17.29ZM81.8,72.42l18.57-32.17v54.86h-2.34l-16.23-22.69ZM144.98,89.61l6.78-11.74,12.33,17.24h-15.77l-3.34-5.5ZM154.87,72.48h0s18.54-32.1,18.54-32.1v54.73h-2.34l-16.2-22.63ZM189.59,95.11l12.07-16.88,9.75,16.88h-21.82Z"/>
        <path class="cls-5" d="M141.18,95.12h-.01s-1.58-2.7-1.58-2.7l-2.73-4.62-.16-.26-.15-.27-6.5-11.02-3.16-5.35-23.84-40.42-23.16,39.27-3.16,5.35-11.8,20.01-.03.05h76.3l-.02-.04ZM68.7,95.11l9.98-17.29,12.37,17.29h-22.35ZM98.03,95.11l-16.23-22.69,18.57-32.17v54.86h-2.34ZM106.77,95.11v-54.62l18.7,32.39-15.9,22.23h-2.8ZM116.55,95.11l12.04-16.83,6.54,11.33-3.34,5.5h-15.24Z"/>
        <path class="cls-5" d="M214.24,95.11l-11.14-18.89-3.15-5.35-23.83-40.39-23.18,39.3-3.15,5.34-6.71,11.37-.15.26-.16.27-3.18,5.4-1.12,1.89-.16.27-.16.27-.15.26-.03.05h76.3l-.03-.05ZM148.32,95.11l-3.34-5.5,6.78-11.74,12.33,17.24h-15.77ZM171.07,95.11l-16.2-22.63h0s18.54-32.1,18.54-32.1v54.73h-2.34ZM179.81,95.11v-54.73l18.74,32.45-15.94,22.28h-2.8ZM189.59,95.11l12.07-16.88,9.75,16.88h-21.82Z"/>
        <polygon class="cls-3" points="100.74 98.9 93.76 98.9 91.08 95.16 91.05 95.11 78.68 77.82 78.51 77.58 78.33 77.34 76.73 75.1 73.88 71.11 73.75 70.93 76.95 65.65 77.08 65.83 79.89 69.75 81.45 71.94 81.62 72.18 81.8 72.42 98.03 95.11 98.06 95.16 100.37 98.38 100.64 98.76 100.74 98.9"/>
        <polygon class="cls-3" points="133.61 71.27 133.57 71.33 133.4 71.57 130.05 76.25 128.94 77.8 128.76 78.05 128.59 78.28 116.55 95.11 116.52 95.16 113.84 98.9 106.86 98.9 109.54 95.16 109.57 95.11 125.47 72.88 125.64 72.64 125.82 72.4 126.89 70.9 130.19 66.28 130.36 66.04 130.4 65.99 133.61 71.27"/>
        <polygon class="cls-3" points="173.78 98.9 166.8 98.9 164.12 95.16 164.09 95.11 151.76 77.87 151.59 77.63 151.41 77.39 149.79 75.12 146.96 71.16 146.79 70.93 149.99 65.65 150.16 65.89 152.94 69.78 154.53 71.99 154.7 72.24 154.87 72.47 154.87 72.48 171.07 95.11 171.1 95.16 173.41 98.38 173.68 98.76 173.78 98.9"/>
        <polygon class="cls-3" points="206.64 71.27 206.47 71.51 203.1 76.22 202.01 77.74 201.84 77.98 201.66 78.23 189.59 95.11 189.55 95.16 186.88 98.9 179.9 98.9 182.58 95.16 182.61 95.11 198.55 72.83 198.72 72.59 198.89 72.35 198.89 72.34 199.95 70.87 203.27 66.23 203.44 65.99 206.64 71.27"/>
        <g>
          <polygon class="cls-3" points="176.61 21.78 129.81 98.9 139.31 98.9 173.68 39.36 173.68 98.9 179.54 98.9 179.54 39.36 221.48 112.01 221.42 112.01 225.12 118.47 235.29 118.47 176.61 21.78"/>
          <path class="cls-3" d="M202.01,77.74l-3.12-5.39h0s-19.62-34-19.62-34v60.28h-5.32v-60.28l-19.42,33.64-3.12,5.4-6.75,11.7-.15.26-.16.27-3.17,5.49h0s-.03.05-.03.05l-1.09,1.9-.16.28.16.27.15-.27.16.26,1.41-2.44.02-.05,2.87-4.96.16-.27.15-.27,6.78-11.74,3.11-5.39h0s18.54-32.1,18.54-32.1v58.52h6.4v-58.52l18.74,32.45,3.11,5.4,9.75,16.88h.63l-10.03-17.37ZM202.01,77.74l-3.12-5.39h0s-19.62-34-19.62-34v60.28h-5.32v-60.28l-19.42,33.64-3.12,5.4-6.75,11.7-.15.26-.16.27-3.17,5.49h0s-.03.05-.03.05l-1.09,1.9-.16.28.16.27.15-.27.16.26,1.41-2.44.02-.05,2.87-4.96.16-.27.15-.27,6.78-11.74,3.11-5.39h0s18.54-32.1,18.54-32.1v58.52h6.4v-58.52l18.74,32.45,3.11,5.4,9.75,16.88h.63l-10.03-17.37ZM202.01,77.74l-3.12-5.39h0s-19.62-34-19.62-34v60.28h-5.32v-60.28l-19.42,33.64-3.12,5.4-6.75,11.7-.15.26-.16.27-3.17,5.49h0s-.03.05-.03.05l-1.09,1.9-.16.28.16.27.15-.27.16.26,1.41-2.44.02-.05,2.87-4.96.16-.27.15-.27,6.78-11.74,3.11-5.39h0s18.54-32.1,18.54-32.1v58.52h6.4v-58.52l18.74,32.45,3.11,5.4,9.75,16.88h.63l-10.03-17.37ZM202.01,77.74l-3.12-5.39h0s-19.62-34-19.62-34v60.28h-5.32v-60.28l-19.42,33.64-3.12,5.4-6.75,11.7-.15.26-.16.27-3.17,5.49h0s-.03.05-.03.05l-1.09,1.9-.16.28.16.27.15-.27.16.26,1.41-2.44.02-.05,2.87-4.96.16-.27.15-.27,6.78-11.74,3.11-5.39h0s18.54-32.1,18.54-32.1v58.52h6.4v-58.52l18.74,32.45,3.11,5.4,9.75,16.88h.63l-10.03-17.37ZM235.51,118.32l-.27-.44-7.13-11.75-51.27-84.49-.23-.38-36.56,60.24-.15.26-.16.26-3.19,5.25-1.1,1.82-.16.26-.16.26-3.34,5.5-.03.05-2.43,4.01h10.13l.6-1.03.15-.27.16-.27,1.41-2.44.02-.05,2.87-4.96.16-.27.15-.27,6.78-11.74,3.11-5.39h0s18.54-32.1,18.54-32.1v58.79h6.4v-58.79l18.74,32.45,3.11,5.4,9.75,16.88.03.05,2.62,4.55.11.18,4.09,7.08.24.42,2.51,4.35h-.06l4.01,7.01h10.81l-.26-.43ZM218.88,106.97l-.38-.67-6.43-11.14-.03-.05-10.03-17.37-3.12-5.39h0s-19.62-34-19.62-34v60.28h-5.32v-60.28l-19.42,33.64-3.12,5.4-6.75,11.7-.15.26-.16.27-3.17,5.49h0s-.03.05-.03.05l-1.09,1.9-.16.28-.16.26-.59,1.03h-8.86l2.11-3.47.03-.05,3.01-4.97.16-.25.16-.27,1.1-1.82,3.2-5.26.15-.26.16-.26,6.59-10.86,3.2-5.27,26.45-43.59,26.66,43.93,3.2,5.28,21.52,35.46,6.81,11.22v.02s-9.52,0-9.52,0l-3.39-5.93h.06l-3.07-5.31ZM202.01,77.74l-3.12-5.39h0s-19.62-34-19.62-34v60.28h-5.32v-60.28l-19.42,33.64-3.12,5.4-6.75,11.7-.15.26-.16.27-3.17,5.49h0s-.03.05-.03.05l-1.09,1.9-.16.28.16.27.15-.27.16.26,1.41-2.44.02-.05,2.87-4.96.16-.27.15-.27,6.78-11.74,3.11-5.39h0s18.54-32.1,18.54-32.1v58.52h6.4v-58.52l18.74,32.45,3.11,5.4,9.75,16.88h.63l-10.03-17.37ZM202.01,77.74l-3.12-5.39h0s-19.62-34-19.62-34v60.28h-5.32v-60.28l-19.42,33.64-3.12,5.4-6.75,11.7-.15.26-.16.27-3.17,5.49h0s-.03.05-.03.05l-1.09,1.9-.16.28.16.27.15-.27.16.26,1.41-2.44.02-.05,2.87-4.96.16-.27.15-.27,6.78-11.74,3.11-5.39h0s18.54-32.1,18.54-32.1v58.52h6.4v-58.52l18.74,32.45,3.11,5.4,9.75,16.88h.63l-10.03-17.37ZM202.01,77.74l-3.12-5.39h0s-19.62-34-19.62-34v60.28h-5.32v-60.28l-19.42,33.64-3.12,5.4-6.75,11.7-.15.26-.16.27-3.17,5.49h0s-.03.05-.03.05l-1.09,1.9-.16.28.16.27.15-.27.16.26,1.41-2.44.02-.05,2.87-4.96.16-.27.15-.27,6.78-11.74,3.11-5.39h0s18.54-32.1,18.54-32.1v58.52h6.4v-58.52l18.74,32.45,3.11,5.4,9.75,16.88h.63l-10.03-17.37ZM202.01,77.74l-3.12-5.39h0s-19.62-34-19.62-34v60.28h-5.32v-60.28l-19.42,33.64-3.12,5.4-6.75,11.7-.15.26-.16.27-3.17,5.49h0s-.03.05-.03.05l-1.09,1.9-.16.28.16.27.15-.27.16.26,1.41-2.44.02-.05,2.87-4.96.16-.27.15-.27,6.78-11.74,3.11-5.39h0s18.54-32.1,18.54-32.1v58.52h6.4v-58.52l18.74,32.45,3.11,5.4,9.75,16.88h.63l-10.03-17.37Z"/>
        </g>
        <g>
          <polygon class="cls-3" points="150.3 98.9 103.5 21.78 44.82 118.47 54.99 118.47 58.69 112.01 58.63 112.01 100.64 39.24 100.64 98.9 106.5 98.9 106.5 39.48 140.8 98.9 150.3 98.9"/>
          <path class="cls-3" d="M140.06,97.06l-1.1-1.9-.03-.05-.46-.8-2.71-4.69-.16-.27-.15-.26-6.51-11.29-3.12-5.4-19.59-33.93v60.16h-5.32v-60.4l-19.46,33.71-3.12,5.4-10.26,17.77-.03.05-2.62,4.55h.31l2.63-4.55.03-.05h.31l9.98-17.29,3.12-5.4,18.57-32.17v58.13l.27.38v.14h6.13v-58.41l18.7,32.39,3.12,5.4,6.54,11.33.16.26h0s.15.27.15.27l2.71,4.71.16.26.03.05h.3l1.26,2.18.16.27.15-.27-.15-.28ZM140.06,97.06l-1.1-1.9-.03-.05-.46-.8-2.71-4.69-.16-.27-.15-.26-6.51-11.29-3.12-5.4-19.59-33.93v60.16h-5.32v-60.4l-19.46,33.71-3.12,5.4-10.26,17.77-.03.05-2.62,4.55h.31l2.63-4.55.03-.05h.31l9.98-17.29,3.12-5.4,18.57-32.17v58.13l.27.38v.14h6.13v-58.41l18.7,32.39,3.12,5.4,6.54,11.33.16.26h0s.15.27.15.27l2.71,4.71.16.26.03.05h.3l1.26,2.18.16.27.15-.27-.15-.28ZM140.06,97.06l-1.1-1.9-.03-.05-.46-.8-2.71-4.69-.16-.27-.15-.26-6.51-11.29-3.12-5.4-19.59-33.93v60.16h-5.32v-60.4l-19.46,33.71-3.12,5.4-10.26,17.77-.03.05-2.62,4.55h.31l2.63-4.55.03-.05h.31l9.98-17.29,3.12-5.4,18.57-32.17v58.13l.27.38v.14h6.13v-58.41l18.7,32.39,3.12,5.4,6.54,11.33.16.26h0s.15.27.15.27l2.71,4.71.16.26.03.05h.3l1.26,2.18.16.27.15-.27-.15-.28ZM140.06,97.06l-1.1-1.9-.03-.05-.46-.8-2.71-4.69-.16-.27-.15-.26-6.51-11.29-3.12-5.4-19.59-33.93v60.16h-5.32v-60.4l-19.46,33.71-3.12,5.4-10.26,17.77-.03.05-2.62,4.55h.31l2.63-4.55.03-.05h.31l9.98-17.29,3.12-5.4,18.57-32.17v58.13l.27.38v.14h6.13v-58.41l18.7,32.39,3.12,5.4,6.54,11.33.16.26h0s.15.27.15.27l2.71,4.71.16.26.03.05h.3l1.26,2.18.16.27.15-.27-.15-.28ZM148.35,95.16l-.03-.05-3.34-5.5-.16-.26-.16-.26-1.58-2.6-2.71-4.47-.16-.26-.16-.26-36.32-59.86-.23-.38-51.06,84.14-7.91,13.03-.19.32h10.81l4.01-7.01h-.06l1.94-3.36.81-1.41,3.39-5.87.8-1.39,2.63-4.55.03-.05,9.98-17.29,3.12-5.4,18.57-32.17v58.92h6.4v-58.68l18.7,32.39,3.12,5.4,6.54,11.33.16.26h0s.15.27.15.27l2.71,4.71.16.26.03.05,1.4,2.44.16.27.16.27.51.89.08.14h10.13l-2.43-4.01ZM140.21,97.34l-.15-.28-1.1-1.9-.03-.05-.46-.8-2.71-4.69-.16-.27-.15-.26-6.51-11.29-3.12-5.4-19.59-33.93v60.16h-5.32v-60.4l-19.46,33.71-3.12,5.4-10.26,17.77-.03.05-2.62,4.55-.18.31-4.01,6.95-.19.32-2.88,4.99h.06l-3.39,5.93h-9.53l6.93-11.41,21.65-35.69,3.2-5.28,26.42-43.53,26.69,43.98,3.21,5.29,6.34,10.45.16.26.16.26,2.71,4.48,1.58,2.6.16.27.16.26,3.01,4.96.03.05,2.11,3.47h-8.86l-.59-1.03-.16-.26ZM140.06,97.06l-1.1-1.9-.03-.05-.46-.8-2.71-4.69-.16-.27-.15-.26-6.51-11.29-3.12-5.4-19.59-33.93v60.16h-5.32v-60.4l-19.46,33.71-3.12,5.4-10.26,17.77-.03.05-2.62,4.55h.31l2.63-4.55.03-.05h.31l9.98-17.29,3.12-5.4,18.57-32.17v58.13l.27.38v.14h6.13v-58.41l18.7,32.39,3.12,5.4,6.54,11.33.16.26h0s.15.27.15.27l2.71,4.71.16.26.03.05h.3l1.26,2.18.16.27.15-.27-.15-.28ZM140.06,97.06l-1.1-1.9-.03-.05-.46-.8-2.71-4.69-.16-.27-.15-.26-6.51-11.29-3.12-5.4-19.59-33.93v60.16h-5.32v-60.4l-19.46,33.71-3.12,5.4-10.26,17.77-.03.05-2.62,4.55h.31l2.63-4.55.03-.05h.31l9.98-17.29,3.12-5.4,18.57-32.17v58.13l.27.38v.14h6.13v-58.41l18.7,32.39,3.12,5.4,6.54,11.33.16.26h0s.15.27.15.27l2.71,4.71.16.26.03.05h.3l1.26,2.18.16.27.15-.27-.15-.28ZM140.06,97.06l-1.1-1.9-.03-.05-.46-.8-2.71-4.69-.16-.27-.15-.26-6.51-11.29-3.12-5.4-19.59-33.93v60.16h-5.32v-60.4l-19.46,33.71-3.12,5.4-10.26,17.77-.03.05-2.62,4.55h.31l2.63-4.55.03-.05h.31l9.98-17.29,3.12-5.4,18.57-32.17v58.13l.27.38v.14h6.13v-58.41l18.7,32.39,3.12,5.4,6.54,11.33.16.26h0s.15.27.15.27l2.71,4.71.16.26.03.05h.3l1.26,2.18.16.27.15-.27-.15-.28ZM140.06,97.06l-1.1-1.9-.03-.05-.46-.8-2.71-4.69-.16-.27-.15-.26-6.51-11.29-3.12-5.4-19.59-33.93v60.16h-5.32v-60.4l-19.46,33.71-3.12,5.4-10.26,17.77-.03.05-2.62,4.55h.31l2.63-4.55.03-.05h.31l9.98-17.29,3.12-5.4,18.57-32.17v58.13l.27.38v.14h6.13v-58.41l18.7,32.39,3.12,5.4,6.54,11.33.16.26h0s.15.27.15.27l2.71,4.71.16.26.03.05h.3l1.26,2.18.16.27.15-.27-.15-.28Z"/>
        </g>
        <rect class="cls-5" x="157.59" y="102.56" width="38.04" height="32.94"/>
        <rect class="cls-5" x="153.39" y="98.9" width="46.5" height="40.27"/>
        <rect class="cls-5" x="84.21" y="102.56" width="38.04" height="32.94"/>
        <rect class="cls-3" x="158.52" y="103.37" width="36.18" height="31.33"/>
        <rect class="cls-5" x="80.01" y="98.9" width="46.5" height="40.27"/>
        <rect class="cls-5" x="166.87" y="102.56" width=".93" height="32.94"/>
        <rect class="cls-5" x="158.14" y="110.56" width="37.01" height=".93"/>
        <rect class="cls-5" x="157.98" y="118.55" width="37.01" height=".93"/>
        <rect class="cls-5" x="157.98" y="126.55" width="37.01" height=".93"/>
        <rect class="cls-5" x="176.15" y="102.56" width=".93" height="32.94"/>
        <rect class="cls-5" x="185.43" y="102.56" width=".93" height="32.94"/>
        <polygon class="cls-3" points="211.74 156.12 67.53 156.12 67.53 162.37 69.7 162.37 69.7 163.66 71.04 163.66 71.04 166.33 72.06 166.33 72.06 178.63 77.15 178.63 77.15 166.33 78.3 166.33 78.3 163.66 80.01 163.66 80.01 162.37 199.64 162.37 199.64 163.66 200.98 163.66 200.98 166.33 202 166.33 202 178.63 207.1 178.63 207.1 166.33 208.24 166.33 208.24 163.66 209.96 163.66 209.96 162.37 211.74 162.37 211.74 156.12"/>
        <g>
          <rect class="cls-5" x="125.1" y="165.08" width="29.7" height="60.55"/>
          <path class="cls-1" d="M124.7,164.69v61.34h30.51v-61.34h-30.51ZM154.4,225.24h-28.89v-59.76h28.89v59.76Z"/>
        </g>
        <rect class="cls-3" x="61.03" y="135.5" width="157.46" height="3.66"/>
        <rect class="cls-3" x="85.14" y="103.49" width="36.18" height="31.06"/>
        <rect class="cls-5" x="93.49" y="102.56" width=".93" height="32.94"/>
        <rect class="cls-5" x="84.76" y="110.56" width="37.01" height=".93"/>
        <rect class="cls-5" x="84.6" y="118.55" width="37.01" height=".93"/>
        <rect class="cls-5" x="84.6" y="126.55" width="37.01" height=".93"/>
        <rect class="cls-5" x="102.77" y="102.56" width=".93" height="32.94"/>
        <rect class="cls-5" x="112.05" y="102.56" width=".93" height="32.94"/>
        <g>
          <polygon class="cls-3" points="122.25 98.9 122.25 101.63 84.24 101.63 84.24 102.56 122.25 102.56 122.25 152.49 126.51 152.49 126.51 98.9 122.25 98.9"/>
          <rect class="cls-3" x="80.01" y="98.9" width="4.2" height="53.6"/>
        </g>
        <polygon class="cls-3" points="195.7 98.9 195.7 101.63 157.52 101.63 157.52 98.9 153.32 98.9 153.32 152.49 157.52 152.49 157.52 102.56 195.7 102.56 195.7 152.49 199.9 152.49 199.9 98.9 195.7 98.9"/>
        <polygon class="cls-3" points="97.57 5.49 97.57 2.02 99.1 2.02 99.1 0 79.84 0 79.84 2.02 81.36 2.02 81.36 5.49 78.2 5.49 78.2 7.32 80.29 7.32 80.29 19.3 98.65 19.3 98.65 7.32 100.74 7.32 100.74 5.49 97.57 5.49"/>
        <polygon class="cls-3" points="200.59 5.49 200.59 2.02 202.11 2.02 202.11 0 182.86 0 182.86 2.02 184.38 2.02 184.38 5.49 181.22 5.49 181.22 7.32 183.3 7.32 183.3 19.3 201.67 19.3 201.67 7.32 203.75 7.32 203.75 5.49 200.59 5.49"/>
        <path class="cls-3" d="M65.31,152.5l.07.07c.29.27.57.53.85.78.3.28.59.54.89.8.65.57,1.44,1.23,2.36,1.97h138.97c.33-1.1.52-2.32.68-3.62H65.31ZM211.44,95.16l-.03-.05h-28.8l-.03.05h-2.77v3.74h-6.4v-.52l-2.31-3.22h-6.98l-.03-.05h-15.77l.03.05h-6.57l-1.41,2.44-.16-.26-.15.27-.16-.27-1.26-2.18h-6.88l.03-.05h-15.24l-.03.05h-9.75v3.74h-6.13v-.14l-.27-.38v-3.22h-2.31l-.03-.05h-29.64l-.03.05-2.63,4.55h148.33l-2.62-4.55ZM65.31,152.5l.07.07c.29.27.57.53.85.78.3.28.59.54.89.8.65.57,1.44,1.23,2.36,1.97h138.97c.33-1.1.52-2.32.68-3.62H65.31ZM211.44,95.16l-.03-.05h-28.8l-.03.05h-2.77v3.74h-6.4v-.52l-2.31-3.22h-6.98l-.03-.05h-15.77l.03.05h-6.57l-1.41,2.44-.16-.26-.15.27-.16-.27-1.26-2.18h-6.88l.03-.05h-15.24l-.03.05h-9.75v3.74h-6.13v-.14l-.27-.38v-3.22h-2.31l-.03-.05h-29.64l-.03.05-2.63,4.55h148.33l-2.62-4.55ZM65.31,152.5l.07.07c.29.27.57.53.85.78.3.28.59.54.89.8.65.57,1.44,1.23,2.36,1.97h138.97c.33-1.1.52-2.32.68-3.62H65.31ZM211.44,95.16l-.03-.05h-28.8l-.03.05h-2.77v3.74h-6.4v-.52l-2.31-3.22h-6.98l-.03-.05h-15.77l.03.05h-6.57l-1.41,2.44-.16-.26-.15.27-.16-.27-1.26-2.18h-6.88l.03-.05h-15.24l-.03.05h-9.75v3.74h-6.13v-.14l-.27-.38v-3.22h-2.31l-.03-.05h-29.64l-.03.05-2.63,4.55h148.33l-2.62-4.55ZM65.31,152.5l.07.07c.29.27.57.53.85.78.3.28.59.54.89.8.65.57,1.44,1.23,2.36,1.97h138.97c.33-1.1.52-2.32.68-3.62H65.31ZM214.06,99.71l-2.62-4.55-.03-.05h-28.8l-.03.05h-2.77v3.74h-6.4v-.52l-2.31-3.22h-6.98l-.03-.05h-15.77l.03.05h-6.57l-1.41,2.44-.16-.26-.15.27-.16-.27-1.26-2.18h-6.88l.03-.05h-15.24l-.03.05h-9.75v3.74h-6.13v-.14l-.27-.38v-3.22h-2.31l-.03-.05h-29.64l-.03.05-2.63,4.55h148.33ZM218.5,95.11H61.04v54.68h.02v6.37h157.44v-54.57l-.12-1.88h.12v-4.6ZM214.17,152.5H65.24v-52.79h148.93v52.79ZM211.44,95.16l-.03-.05h-28.8l-.03.05h-2.77v3.74h-6.4v-.52l-2.31-3.22h-6.98l-.03-.05h-15.77l.03.05h-6.57l-1.41,2.44-.16-.26-.15.27-.16-.27-1.26-2.18h-6.88l.03-.05h-15.24l-.03.05h-9.75v3.74h-6.13v-.14l-.27-.38v-3.22h-2.31l-.03-.05h-29.64l-.03.05-2.63,4.55h148.33l-2.62-4.55ZM65.31,152.5l.07.07c.29.27.57.53.85.78.3.28.59.54.89.8.65.57,1.44,1.23,2.36,1.97h138.97c.33-1.1.52-2.32.68-3.62H65.31ZM211.44,95.16l-.03-.05h-28.8l-.03.05h-2.77v3.74h-6.4v-.52l-2.31-3.22h-6.98l-.03-.05h-15.77l.03.05h-6.57l-1.41,2.44-.16-.26-.15.27-.16-.27-1.26-2.18h-6.88l.03-.05h-15.24l-.03.05h-9.75v3.74h-6.13v-.14l-.27-.38v-3.22h-2.31l-.03-.05h-29.64l-.03.05-2.63,4.55h148.33l-2.62-4.55ZM65.31,152.5l.07.07c.29.27.57.53.85.78.3.28.59.54.89.8.65.57,1.44,1.23,2.36,1.97h138.97c.33-1.1.52-2.32.68-3.62H65.31ZM211.44,95.16l-.03-.05h-28.8l-.03.05h-2.77v3.74h-6.4v-.52l-2.31-3.22h-6.98l-.03-.05h-15.77l.03.05h-6.57l-1.41,2.44-.16-.26-.15.27-.16-.27-1.26-2.18h-6.88l.03-.05h-15.24l-.03.05h-9.75v3.74h-6.13v-.14l-.27-.38v-3.22h-2.31l-.03-.05h-29.64l-.03.05-2.63,4.55h148.33l-2.62-4.55ZM65.31,152.5l.07.07c.29.27.57.53.85.78.3.28.59.54.89.8.65.57,1.44,1.23,2.36,1.97h138.97c.33-1.1.52-2.32.68-3.62H65.31ZM211.44,95.16l-.03-.05h-28.8l-.03.05h-2.77v3.74h-6.4v-.52l-2.31-3.22h-6.98l-.03-.05h-15.77l.03.05h-6.57l-1.41,2.44-.16-.26-.15.27-.16-.27-1.26-2.18h-6.88l.03-.05h-15.24l-.03.05h-9.75v3.74h-6.13v-.14l-.27-.38v-3.22h-2.31l-.03-.05h-29.64l-.03.05-2.63,4.55h148.33l-2.62-4.55ZM65.31,152.5l.07.07c.29.27.57.53.85.78.3.28.59.54.89.8.65.57,1.44,1.23,2.36,1.97h138.97c.33-1.1.52-2.32.68-3.62H65.31Z"/>
        <rect class="cls-3" x="61.03" y="148.41" width="4.2" height="80.32"/>
        <rect class="cls-3" x="214.29" y="148.41" width="4.21" height="80.32"/>
        <rect class="cls-3" x="61.03" y="222.97" width="157.46" height="5.76"/>
        <rect class="cls-3" x="126.51" y="166.51" width="26.88" height="56.45"/>
        <path class="cls-5" d="M141.25,181.56h-.01c-.34-.43-.91-.7-1.55-.7s-1.19.27-1.54.69c-.23.27-.37.61-.37.98,0,.92.86,1.67,1.91,1.67s1.91-.75,1.91-1.67c0-.36-.13-.7-.35-.97ZM139.69,183.78c-.79,0-1.43-.56-1.43-1.25,0-.44.26-.83.65-1.06.22-.13.49-.2.78-.2s.58.08.81.21c.38.23.63.61.63,1.05,0,.69-.64,1.25-1.44,1.25Z"/>
        <path class="cls-5" d="M141.6,180.5s-1.47.15-1.96.15-1.96-.15-1.96-.15c0,0-.28.51-.69.55.4.06.69.55.69.55,0,0,1.49-.19,2-.19.49,0,1.93.19,1.93.19,0,0,.29-.49.69-.55-.41-.05-.69-.55-.69-.55Z"/>
        <path class="cls-5" d="M153.39,211.78l-14.05.07c-1.04-.02-1.86-.37-1.86-.81,0-.04.01-.08.03-.12-.62.14-1.05.4-1.05.71,0,.04.01.07.03.11-.3.35-.92.61-1.69.71.78.1,1.41.37,1.71.72-.03.06-.05.11-.05.17,0,.31.43.58,1.05.71-.01-.04-.03-.08-.03-.12,0-.43.82-.78,1.86-.8l14.06.08v-1.43Z"/>
        <path class="cls-5" d="M153.39,171.48l-14.05.07c-1.04-.02-1.86-.38-1.86-.81,0-.04.01-.08.03-.12-.62.14-1.05.4-1.05.71,0,.04.01.07.03.11-.3.35-.92.62-1.69.71.78.1,1.41.37,1.71.72-.03.06-.05.11-.05.17,0,.31.43.57,1.05.71-.01-.04-.03-.08-.03-.12,0-.43.82-.78,1.86-.81l14.06.08v-1.43Z"/>
        <path class="cls-5" d="M131.33,193.3c0,1.07-.87,1.95-1.95,1.95s-1.95-.87-1.95-1.95.87-1.95,1.95-1.95,1.95.87,1.95,1.95Z"/>
        <g>
          <g>
            <rect class="cls-3" x="168.7" y="175.47" width="31.95" height="36.9"/>
            <g>
              <rect class="cls-3" x="171.31" y="178.48" width="26.73" height="30.88"/>
              <path class="cls-5" d="M170.75,177.92v32.01h27.86v-32.01h-27.86ZM197.48,208.8h-25.6v-29.75h25.6v29.75Z"/>
              <rect class="cls-5" x="190.89" y="179.05" width=".75" height="29.75"/>
              <rect class="cls-5" x="184.31" y="179.05" width=".75" height="29.75"/>
              <rect class="cls-5" x="177.72" y="179.05" width=".75" height="29.75"/>
              <rect class="cls-5" x="171.31" y="185.76" width="26.44" height=".75"/>
              <rect class="cls-5" x="171.31" y="193.38" width="26.44" height=".75"/>
              <rect class="cls-5" x="171.31" y="200.99" width="26.44" height=".75"/>
            </g>
          </g>
          <path class="cls-1" d="M200.14,174.48c-1.75-2.38-8-4.15-15.47-4.15s-13.72,1.77-15.47,4.15h30.93Z"/>
        </g>
        <g>
          <g>
            <rect class="cls-3" x="79.34" y="175.47" width="31.95" height="36.9"/>
            <g>
              <rect class="cls-3" x="81.95" y="178.48" width="26.73" height="30.88"/>
              <path class="cls-5" d="M81.39,177.92v32.01h27.86v-32.01h-27.86ZM108.12,208.8h-25.6v-29.75h25.6v29.75Z"/>
              <rect class="cls-5" x="101.53" y="179.05" width=".75" height="29.75"/>
              <rect class="cls-5" x="94.94" y="179.05" width=".75" height="29.75"/>
              <rect class="cls-5" x="88.36" y="179.05" width=".75" height="29.75"/>
              <rect class="cls-5" x="81.95" y="185.76" width="26.44" height=".75"/>
              <rect class="cls-5" x="81.95" y="193.38" width="26.44" height=".75"/>
              <rect class="cls-5" x="81.95" y="200.99" width="26.44" height=".75"/>
            </g>
          </g>
          <path class="cls-1" d="M110.78,174.48c-1.75-2.38-8-4.15-15.47-4.15s-13.72,1.77-15.47,4.15h30.93Z"/>
        </g>
        <g>
          <rect class="cls-4" x="114.55" y="174.02" width="6.51" height="7.81"/>
          <path class="cls-1" d="M122.51,173.53c-.74-.17-2.03-1.95-2.16-2.61-.14-.66-.81-.82-.95-.87-.11-.03-.25-.05-.4-.08-.31-.04-.67-.07-.91-.08-.12-.01-.21-.02-.26-.02h-.03s-.13.01-.25.02c-.25.01-.61.04-.92.08-.15.03-.29.05-.4.08-.14.05-.8.21-.94.87-.14.66-1.43,2.44-2.16,2.61-.02.1-.03.17-.03.21,0,.1.03.1.03.1h4.67s.01.02.01,0h4.7s.06-.01,0-.31Z"/>
          <g>
            <path class="cls-1" d="M117.81,173.84s-.01.02-.01,0h-3.4v8.16h6.83v-8.16h-3.42ZM120.92,181.69h-6.21v-7.52h6.21v7.52Z"/>
            <path class="cls-1" d="M115.9,175.52v4.8h3.83v-4.8h-3.83ZM119.43,180h-3.22v-4.16h3.22v4.16Z"/>
            <rect class="cls-1" x="117.71" y="173.84" width=".3" height="1.99"/>
            <rect class="cls-1" x="117.71" y="179.9" width=".3" height="2.09"/>
            <rect class="cls-1" x="119.43" y="177.91" width="1.78" height=".32"/>
            <rect class="cls-1" x="114.41" y="177.91" width="1.78" height=".32"/>
          </g>
          <rect class="cls-1" x="116.63" y="169.87" width="2.36" height=".34"/>
          <path class="cls-1" d="M118.22,168.29h-.21v-.74c.08-.06.14-.16.14-.27,0-.18-.15-.33-.33-.33s-.33.15-.33.33c0,.11.05.21.14.27v.74h-.21c.14.21.23.49.23.8s-.09.59-.23.8h.79c-.13-.21-.21-.47-.21-.76,0-.3.09-.58.23-.79v-.04Z"/>
        </g>
        <g>
          <rect class="cls-4" x="158.81" y="174.02" width="6.51" height="7.81"/>
          <path class="cls-1" d="M166.77,173.53c-.73-.17-2.02-1.95-2.16-2.61-.14-.66-.81-.82-.94-.87-.11-.03-.25-.05-.41-.08-.31-.04-.67-.07-.91-.08-.12-.01-.21-.02-.26-.02h-.03s-.13.01-.25.02c-.24.01-.6.04-.91.08-.16.03-.3.05-.41.08-.14.05-.8.21-.94.87-.14.66-1.43,2.44-2.16,2.61-.06.3,0,.31,0,.31h4.67s.01.02.01,0h4.7s.06-.01,0-.31Z"/>
          <g>
            <path class="cls-1" d="M162.07,173.84s0,.02-.01,0h-3.4v8.16h6.83v-8.16h-3.42ZM165.18,181.69h-6.21v-7.52h6.21v7.52Z"/>
            <path class="cls-1" d="M160.16,175.52v4.8h3.83v-4.8h-3.83ZM163.69,180h-3.22v-4.16h3.22v4.16Z"/>
            <rect class="cls-1" x="161.97" y="173.84" width=".3" height="1.99"/>
            <rect class="cls-1" x="161.97" y="179.9" width=".3" height="2.09"/>
            <rect class="cls-1" x="163.69" y="177.91" width="1.78" height=".32"/>
            <rect class="cls-1" x="158.67" y="177.91" width="1.78" height=".32"/>
          </g>
          <rect class="cls-1" x="160.9" y="169.87" width="2.36" height=".34"/>
          <path class="cls-1" d="M162.48,168.29h-.21v-.74c.08-.06.14-.16.14-.27,0-.18-.15-.33-.33-.33s-.33.15-.33.33c0,.11.05.21.14.27v.74h-.21c.14.21.23.49.23.8s-.09.59-.23.8h.79c-.13-.21-.21-.47-.21-.76,0-.3.09-.58.23-.79v-.04Z"/>
        </g>
      </g>
      <path class="cls-3" d="M158.31,208.34c0-10.84,26-30.89,41.54-42.87,2.83-2.19,5.28-4.07,7.21-5.62,2.02-2.14,2.36-5.17,2.75-8.68.56-4.97,1.26-11.16,7.33-17.23,25.39-25.39,50.23-32.65,52.43-30.45.45.45.7,1.06.7,1.72,0,.7-.28,1.36-.78,1.86l-55.41,55.4c-2.35,2.35-6.21,7.1-10.68,12.6-12.77,15.71-30.26,37.22-39.95,38.03-1.56.13-2.89-.28-3.95-1.21-.03-.03-.09-.09-.12-.13-.71-.97-1.07-2.12-1.07-3.42h0Z"/>
      <path class="cls-3" d="M122.07,208.48c0,1.35-.38,2.56-1.12,3.58-.03.04-.1.11-.13.14-1.11.97-2.53,1.39-4.2,1.24-11.23-1.03-33-28.66-46.01-45.16-3.39-4.3-6.07-7.7-7.87-9.76-4.63-5.3-12.53-11.93-15.12-14.11-.38-.32-.64-.53-.74-.62l-.04-.03s-.07-.06-.1-.09c-.64-.56-1.44-1.24-2.4-2.02-2.27-1.86-3.47-1.8-5.14-1.71-.64.03-1.37.07-2.23,0-5.02-.38-7.86-1.96-13.25-7.32-3.46-3.44-20.7-25.21-23.62-29.33-.07-.1-.1-.21-.1-.32,0-.14.06-.29.16-.39l1.23-1.23c.11-.11.25-.17.41-.16.15,0,.3.07.4.18l24.99,27.12.69-.7L3.45,100c-.09-.11-.14-.24-.14-.37,0-.14.05-.29.16-.39l1.07-1.07c.22-.22.57-.22.78,0l26.39,25.78.7-.7-25.76-26.4c-.11-.11-.16-.25-.16-.39s.05-.29.16-.39l1.07-1.07c.21-.21.54-.22.76-.02l27.76,24.42.7-.69-27.12-24.99c-.11-.1-.18-.25-.18-.4h0c0-.16.06-.3.16-.41l1.22-1.23c.19-.19.49-.22.72-.06,4.08,2.9,25.83,20.13,29.33,23.62,1.89,1.89,6.37,6.95,7.32,13.21.07.44.1.88.1,1.39,0,.34-.01.67-.03.99-.01.29-.03.58-.03.88,0,1.02.13,2.27,1.67,4.15,2.4,2.93,3.03,3.49,3.04,3.49.02.02.06.05.08.08.08.09,7.86,9.45,13.89,14.71,2.15,1.88,5.91,4.79,10.27,8.17,16.71,12.95,44.68,34.63,44.68,46.16h0Z"/>
      <g>
        <path class="cls-3" d="M102.78,244.39c1.86-.18,1.94-.18,1.94-1.6v-9.3c0-1.66-.1-1.7-1.94-1.86-.02-.2-.02-.42,0-.64,1.38,0,1.78.04,4.08.04,3.14,0,6-.04,6.34-.04.1.98.26,2.02.44,3.18-.22.02-.46.02-.66,0-.68-1.72-1.6-2.32-3.44-2.32h-2.62v5.46h1.1c1.9,0,2.3-.18,2.58-2.14.22-.04.48-.04.68,0-.06,2.18-.04,2.22-.04,2.6l.04,2.64c-.2.04-.44.04-.68,0-.26-2.1-.68-2.22-2.4-2.22h-1.28v4.34c0,.9,0,1.46.04,1.62h2.74c2.32,0,3.04-.7,4-2.72.2-.02.42-.02.62,0-.28,1.5-.46,2.7-.58,3.58-2.38,0-6.04-.02-7.4-.02-1.88,0-2.5.04-3.56.04-.02-.2-.02-.42,0-.64Z"/>
        <path class="cls-3" d="M115.52,244.39c1.92-.18,2-.16,2-1.6v-9.3c0-1.66-.1-1.7-1.94-1.86-.02-.2-.02-.42,0-.64,1.28,0,1.44.04,3.88.04,3.02,0,6.72-.04,6.82-.04.12,1.02.3,2.1.48,3.32-.22.02-.46.04-.66,0-.72-1.8-1.5-2.46-3.48-2.46h-2.9v5.66h1.32c1.9,0,2.3-.18,2.58-2.14.22-.04.48-.04.68,0-.04,1.7-.04,2.16-.04,2.62s0,.92.04,2.64c-.2.04-.44.04-.68,0-.26-2.1-.68-2.24-2.4-2.24h-1.5v4.14c0,.84,0,1.24.28,1.5.26.24.76.28,1.8.36.04.2.04.44,0,.64-.84,0-2.42-.04-3.2-.04s-2.22.04-3.08.04c-.02-.2-.02-.42,0-.64Z"/>
        <path class="cls-3" d="M130.08,245.09c-.92-.16-1.74-.22-1.9-.22-.02-1.14-.08-2.46-.18-4.02.2-.02.44-.02.64-.02.5,2.34,1.66,3.68,3.62,3.68,1.74,0,2.94-1.02,2.94-2.58,0-1.74-1.54-2.42-3.18-3.12-1.92-.82-3.82-1.64-3.82-4.02,0-2.52,2.1-4,4.66-4,.54,0,1.1.06,1.72.16.78.12,1.16.12,1.3.12.08,0,.34,0,.48-.04.04,1.18.1,2.42.2,3.78-.24.04-.48.06-.66.04-.46-1.7-1.06-3.28-3.08-3.28-1.48,0-2.66.8-2.66,2.34,0,1.24.76,1.96,3.14,2.96,1.76.74,3.8,1.7,3.8,4.16,0,2.72-2.26,4.26-4.92,4.26-.04,0-1,0-2.1-.2Z"/>
        <path class="cls-3" d="M136.96,244.39c1.48-.16,1.66-.22,2.46-2.28l4.32-11.08c.28-.1.76-.16,1.06-.16l4.3,11.42c.72,1.94.78,1.94,2.36,2.1.02.2.02.44,0,.64-.94,0-1.94-.04-2.92-.04-.44,0-.9,0-1.34.02h-.38c-.44.02-.9.02-1.34.02-.04-.2-.04-.42,0-.64,1.3-.12,1.74-.16,1.74-.66,0-.2-.08-.46-.22-.86l-1.14-3.08h-4.5l-1,2.76c-.18.52-.28.82-.28,1.08,0,.58.5.64,1.76.76.02.22.02.44,0,.64-.9,0-1.78-.04-2.68-.04-.76,0-1.4.04-2.2.04-.02-.2-.02-.44,0-.64ZM145.56,238.95l-1.96-5.32-1.94,5.32h3.9Z"/>
        <path class="cls-3" d="M154.6,233.47v8.56c0,1.9.1,2.16,2.1,2.36.02.2.02.44,0,.64-.8,0-1.9-.04-2.56-.04s-1.78.04-2.54.04c-.04-.2-.04-.42,0-.64,1.9-.24,1.98-.3,1.98-2.1v-8.2c0-2.12-.12-2.26-2.14-2.48-.02-.2-.02-.4,0-.62.82,0,1.78.04,2.72.04.12,0,.88,0,1.34-.02l8.12,10.68v-7.68c0-1,0-1.52-.28-1.8-.28-.3-.94-.48-2.02-.56-.04-.22-.04-.44,0-.64.76,0,2.12.04,2.76.04s1.78-.04,2.56-.04c.02.18.02.42,0,.62-1.92.24-2,.34-2,2.12v11.3c-.28.06-.8.1-1.14.1l-8.9-11.68Z"/>
        <path class="cls-3" d="M167.6,244.39c1.86-.18,1.94-.18,1.94-1.6v-9.3c0-1.66-.1-1.7-1.94-1.86-.02-.2-.02-.42,0-.64,1.38,0,1.78.04,4.08.04,3.14,0,6-.04,6.34-.04.1.98.26,2.02.44,3.18-.22.02-.46.02-.66,0-.68-1.72-1.6-2.32-3.44-2.32h-2.62v5.46h1.1c1.9,0,2.3-.18,2.58-2.14.22-.04.48-.04.68,0-.06,2.18-.04,2.22-.04,2.6l.04,2.64c-.2.04-.44.04-.68,0-.26-2.1-.68-2.22-2.4-2.22h-1.28v4.34c0,.9,0,1.46.04,1.62h2.74c2.32,0,3.04-.7,4-2.72.2-.02.42-.02.62,0-.28,1.5-.46,2.7-.58,3.58-2.38,0-6.04-.02-7.4-.02-1.88,0-2.5.04-3.56.04-.02-.2-.02-.42,0-.64Z"/>
        <path class="cls-3" d="M58.26,260.49c0-6.91,4.53-11.41,11.6-11.41,1.54,0,3.48.25,4.78.62.77.22,1.42.4,2.07.4.25,0,.49-.03.74-.09.06,1.82.15,3.73.31,5.83-.37.06-.77.09-1.08.06-.83-3.79-2.99-5.58-6.6-5.58-5.8,0-7.96,4.53-7.96,9.84,0,5.86,2.65,9.99,8.23,9.99,1.14,0,2.62-.22,3.92-.71v-3.89c0-2.56-.15-2.59-3.39-2.84-.06-.31-.06-.68,0-.99,1.29,0,3.73.06,5,.06s3.15-.06,4.35-.06c.03.31.03.65,0,.96-2.53.31-2.62.31-2.62,2.5v.99c0,1.94.12,3.3.22,3.85-2.84.96-5.58,1.45-8.02,1.45-6.97,0-11.53-4.04-11.53-10.98Z"/>
        <path class="cls-3" d="M80.18,270.05c2.28-.25,2.56-.34,3.79-3.52l6.66-17.08c.43-.15,1.17-.25,1.63-.25l6.63,17.61c1.11,2.99,1.2,2.99,3.64,3.24.03.31.03.68,0,.99-1.45,0-2.99-.06-4.5-.06-.68,0-1.39,0-2.07.03h-.59c-.68.03-1.39.03-2.07.03-.06-.31-.06-.65,0-.99,2-.19,2.68-.25,2.68-1.02,0-.31-.12-.71-.34-1.33l-1.76-4.75h-6.94l-1.54,4.26c-.28.8-.43,1.26-.43,1.67,0,.89.77.99,2.71,1.17.03.34.03.68,0,.99-1.39,0-2.74-.06-4.13-.06-1.17,0-2.16.06-3.39.06-.03-.31-.03-.68,0-.99ZM93.44,261.67l-3.02-8.2-2.99,8.2h6.01Z"/>
        <path class="cls-3" d="M106.61,271.13c-1.42-.25-2.68-.34-2.93-.34-.03-1.76-.12-3.79-.28-6.2.31-.03.68-.03.99-.03.77,3.61,2.56,5.67,5.58,5.67,2.68,0,4.53-1.57,4.53-3.98,0-2.68-2.37-3.73-4.9-4.81-2.96-1.26-5.89-2.53-5.89-6.2,0-3.89,3.24-6.17,7.18-6.17.83,0,1.7.09,2.65.25,1.2.19,1.79.19,2,.19.12,0,.52,0,.74-.06.06,1.82.15,3.73.31,5.83-.37.06-.74.09-1.02.06-.71-2.62-1.63-5.06-4.75-5.06-2.28,0-4.1,1.23-4.1,3.61,0,1.91,1.17,3.02,4.84,4.56,2.71,1.14,5.86,2.62,5.86,6.41,0,4.19-3.48,6.57-7.59,6.57-.06,0-1.54,0-3.24-.31Z"/>
        <path class="cls-3" d="M123.85,270.05c3.05-.28,3.15-.25,3.15-2.47v-16.84h-2.22c-3.27,0-4.13,1.3-5.21,4.07-.31.03-.68.03-.99,0,.25-1.97.46-3.76.65-5.46,2.68.15,6.01.15,9.5.15s6.88,0,9.53-.15c.15,1.67.31,3.48.55,5.46-.34.03-.71.03-1.02,0-1.17-2.81-1.97-4.07-5.21-4.07h-2.19v16.44c0,2.59.06,2.62,3.15,2.87.06.31.06.68,0,.99-1.29,0-3.67-.06-4.87-.06s-3.52.06-4.81.06c-.03-.31-.03-.65,0-.99Z"/>
        <path class="cls-3" d="M140.16,270.05c2.84-.25,3.02-.28,3.02-2.47v-14.34c0-2.59-.15-2.62-3.05-2.87-.06-.31-.06-.65,0-.99,1.23,0,3.64.06,4.78.06,1.08,0,3.55-.06,4.69-.06.06.31.06.65,0,.99-2.87.25-3.02.31-3.02,2.47v6.08h11.1v-5.67c0-2.59-.12-2.62-2.99-2.87-.03-.31-.03-.65,0-.99,1.17,0,3.58.06,4.72.06,1.2,0,3.45-.06,4.72-.06.03.31.03.65,0,.99-2.9.25-3.05.31-3.05,2.47v14.34c0,2.56.09,2.62,3.05,2.87.03.34.03.68,0,.99-1.29,0-3.61-.06-4.78-.06s-3.39.06-4.62.06c-.06-.31-.06-.65,0-.99,2.84-.25,2.96-.28,2.96-2.47v-7.31h-11.1v6.91c0,2.59.12,2.62,3.02,2.87.03.34.03.68,0,.99-1.23,0-3.61-.06-4.75-.06s-3.45.06-4.69.06c-.06-.31-.06-.65,0-.99Z"/>
        <path class="cls-3" d="M164.24,270.05c2.28-.25,2.56-.34,3.79-3.52l6.66-17.08c.43-.15,1.17-.25,1.63-.25l6.63,17.61c1.11,2.99,1.2,2.99,3.64,3.24.03.31.03.68,0,.99-1.45,0-2.99-.06-4.5-.06-.68,0-1.39,0-2.07.03h-.59c-.68.03-1.39.03-2.07.03-.06-.31-.06-.65,0-.99,2-.19,2.68-.25,2.68-1.02,0-.31-.12-.71-.34-1.33l-1.76-4.75h-6.94l-1.54,4.26c-.28.8-.43,1.26-.43,1.67,0,.89.77.99,2.71,1.17.03.34.03.68,0,.99-1.39,0-2.74-.06-4.13-.06-1.17,0-2.16.06-3.39.06-.03-.31-.03-.68,0-.99ZM177.5,261.67l-3.02-8.2-2.99,8.2h6.01Z"/>
        <path class="cls-3" d="M189.77,249.45c1.17,0,3.52-.06,4.75-.06.06.31.06.62,0,.96-2.87.28-3.02.28-3.02,2.47v10.08c0,4.63,2.04,6.81,5.86,6.81,4.04,0,6.11-2.44,6.11-7.71v-8.45c0-2.87-.18-2.87-3.27-3.18-.06-.31-.06-.62,0-.96,1.11,0,2.93.06,3.89.06,1.02,0,2.81-.06,3.95-.06.06.31.06.62,0,.96-2.87.31-3.05.28-3.05,2.78v9.5c0,5.49-2.81,8.7-8.57,8.7-4.93,0-8.3-2.37-8.3-7.52v-10.61c0-2.56-.15-2.62-3.05-2.87-.06-.31-.06-.62,0-.96,1.23,0,3.52.06,4.72.06Z"/>
        <path class="cls-3" d="M212.93,271.13c-1.42-.25-2.68-.34-2.93-.34-.03-1.76-.12-3.79-.28-6.2.31-.03.68-.03.99-.03.77,3.61,2.56,5.67,5.58,5.67,2.68,0,4.53-1.57,4.53-3.98,0-2.68-2.38-3.73-4.9-4.81-2.96-1.26-5.89-2.53-5.89-6.2,0-3.89,3.24-6.17,7.19-6.17.83,0,1.7.09,2.65.25,1.2.19,1.79.19,2,.19.12,0,.52,0,.74-.06.06,1.82.15,3.73.31,5.83-.37.06-.74.09-1.02.06-.71-2.62-1.63-5.06-4.75-5.06-2.28,0-4.1,1.23-4.1,3.61,0,1.91,1.17,3.02,4.84,4.56,2.71,1.14,5.86,2.62,5.86,6.41,0,4.19-3.48,6.57-7.59,6.57-.06,0-1.54,0-3.24-.31Z"/>
        <path class="cls-3" d="M70.75,293.19c0,2.59.03,2.62,2.93,2.87.06.31.06.68,0,.99-1.23,0-3.48-.06-4.66-.06s-3.55.06-4.75.06c-.06-.31-.06-.65,0-.99,2.96-.22,3.08-.25,3.08-2.47v-14.37c0-2.53-.18-2.62-3.08-2.84-.06-.31-.06-.65,0-.99,1.17,0,3.82.06,4.72.06,1.08,0,3.58-.09,4.56-.09,3.85,0,7.37,1.45,7.37,5.43,0,2.62-1.51,4.78-4.93,5.83v.09c.34.28.65.65,1.05,1.23l3.24,4.69c2.1,3.02,2.53,3.18,5.15,3.42.06.31.06.68,0,.99-1.2,0-3.45-.06-4.41-.06-.68,0-1.08.03-1.73.03l-5.71-8.42c-.71-1.05-1.08-1.23-2.04-1.33l-.8-.09v6.01ZM70.75,285.91c.55.09.92.12,1.29.12,3.21,0,5.21-1.67,5.21-4.87,0-2.93-1.67-4.53-4.81-4.53-.43,0-1.05.03-1.7.12v9.16Z"/>
        <path class="cls-3" d="M88.32,275.45c1.17,0,3.52-.06,4.75-.06.06.31.06.62,0,.96-2.87.28-3.02.28-3.02,2.47v10.08c0,4.63,2.04,6.81,5.86,6.81,4.04,0,6.11-2.44,6.11-7.71v-8.45c0-2.87-.18-2.87-3.27-3.18-.06-.31-.06-.62,0-.96,1.11,0,2.93.06,3.89.06,1.02,0,2.81-.06,3.95-.06.06.31.06.62,0,.96-2.87.31-3.05.28-3.05,2.78v9.5c0,5.49-2.81,8.7-8.57,8.7-4.93,0-8.3-2.37-8.3-7.52v-10.61c0-2.56-.15-2.62-3.05-2.87-.06-.31-.06-.62,0-.96,1.23,0,3.52.06,4.72.06Z"/>
        <path class="cls-3" d="M116.85,275.39c8.08,0,12.3,3.52,12.3,10.15,0,7.31-5.15,11.5-12.43,11.5-.89,0-3.05-.06-4.13-.06-.99,0-3.55.06-4.75.06-.03-.31-.03-.65,0-.99,2.87-.28,2.99-.25,2.99-2.47v-14.34c0-2.56-.15-2.62-2.99-2.87-.03-.31-.03-.65,0-.99,1.29,0,3.58.06,4.78.06,1.26,0,3.15-.06,4.23-.06ZM114.22,293.19c0,1.02,0,1.73.03,2.16.96.28,2,.43,3.05.43,5.37,0,8.11-4.13,8.11-9.68s-2.96-9.44-8.73-9.44c-1.05,0-2.07.12-2.47.15v16.38Z"/>
        <path class="cls-3" d="M142.87,297.47c-6.66,0-10.64-4.63-10.64-11.01s4.32-11.38,11.01-11.38,10.64,4.59,10.64,11.01-4.32,11.38-11.01,11.38ZM143.12,276.35c-5.15,0-7.03,5.09-7.03,9.9s1.91,9.99,7.12,9.99,6.85-4.9,6.85-9.84-1.85-10.05-6.94-10.05Z"/>
        <path class="cls-3" d="M156.44,296.05c2.87-.28,2.99-.28,2.99-2.47v-14.34c0-2.56-.15-2.62-2.99-2.87-.03-.31-.03-.65,0-.99,1.26,0,3.55.06,4.69.06s3.55-.06,4.75-.06c.06.31.06.65,0,.99-2.93.28-3.05.25-3.05,2.47v14.34c0,1.39,0,2.25.06,2.53h4.38c3.58,0,4.56-1.57,5.92-4.59.31-.06.65-.06.96,0-.49,2.53-.8,4.53-.99,5.89-4.01,0-7.96-.03-11.93-.03-1.17,0-3.55.06-4.78.06-.03-.31-.03-.65,0-.99Z"/>
        <path class="cls-3" d="M181.75,293.19c0,1.26.03,1.94.43,2.31.43.37,1.08.43,2.87.56.03.31.03.68,0,.99-1.36,0-3.79-.06-5-.06s-3.45.06-4.78.06c-.03-.31-.03-.65,0-.99,2.96-.28,3.08-.25,3.08-2.47v-14.34c0-2.56-.15-2.62-3.08-2.87-.03-.31-.03-.65,0-.99,1.2,0,3.85.06,4.69.06,1.14,0,3.55-.09,4.56-.09,3.89,0,7.31,1.42,7.31,5.71s-3.15,6.38-7.31,6.38c-.74,0-1.63-.06-2.78-.31v6.04ZM181.75,285.91c.55.15,1.23.28,1.94.28,2.71,0,4.38-2,4.38-4.96s-1.57-4.63-4.69-4.63c-.43,0-1.05.03-1.63.12v9.19Z"/>
        <path class="cls-3" d="M193.59,296.05c2.84-.25,3.02-.28,3.02-2.47v-14.34c0-2.59-.15-2.62-3.05-2.87-.06-.31-.06-.65,0-.99,1.23,0,3.64.06,4.78.06,1.08,0,3.55-.06,4.69-.06.06.31.06.65,0,.99-2.87.25-3.02.31-3.02,2.47v6.08h11.1v-5.67c0-2.59-.12-2.62-2.99-2.87-.03-.31-.03-.65,0-.99,1.17,0,3.58.06,4.72.06,1.2,0,3.45-.06,4.72-.06.03.31.03.65,0,.99-2.9.25-3.05.31-3.05,2.47v14.34c0,2.56.09,2.62,3.05,2.87.03.34.03.68,0,.99-1.29,0-3.61-.06-4.78-.06s-3.39.06-4.62.06c-.06-.31-.06-.65,0-.99,2.84-.25,2.96-.28,2.96-2.47v-7.31h-11.1v6.91c0,2.59.12,2.62,3.02,2.87.03.34.03.68,0,.99-1.23,0-3.61-.06-4.75-.06s-3.45.06-4.69.06c-.06-.31-.06-.65,0-.99Z"/>
      </g>
      <g>
        <path class="cls-2" d="M50.32,192.72c-.16,0-7.59.37-10.87,1.32-3.66,1.06-7.38,2.27-11.28,2.05-2.13-.12-6.11-1.19-7.49-2.75.87,1.42,1.17,3,2.51,4.11,1.11.92,2.55,1.55,3.92,2.06,2.58.96,5.41,1.56,8.19,1.74,1.62.1,4.02-.3,5.48.39-.85.8-2.14,1.25-3.06,2.14-1.56,1.5-2.88,3.17-3.82,5.06-1.21,2.4-2.56,4.97-2.08,7.72,2.39-1.88,4.52-3.02,7.72-3.67,3.34-.67,6.86-.62,10.21-.05,2.7.46,5.81,1.21,8.53.55,4.47-1.09,3.19-4.17,3.19-7.44,0-2.04.29-4.77-.37-6.71,0,0-2.48-6.81-10.81-6.51Z"/>
        <path class="cls-6" d="M62.03,208.15c-.11-1.64-.09-3.26-.06-4.91.02-1.36.05-2.89-.46-4.19-.56-1.4-1.53-2.69-2.66-3.75-2.25-2.12-5.36-3.06-8.54-2.93-.11,0-3.12.26-4.55.4-2.35.22-4.7.49-6.95,1.15-3.49,1.03-7.08,2.11-10.8,1.86-1.29-.08-2.57-.42-3.78-.81-1.2-.39-2.47-.94-3.31-1.84-.26-.28-.68.09-.51.38.89,1.51,1.32,3.15,2.76,4.33,1.51,1.24,3.55,1.95,5.44,2.54,2.08.65,4.25,1.04,6.44,1.21,1.61.13,3.42-.26,5,.17-.44.31-.91.58-1.37.86-.68.41-1.24.91-1.78,1.46-1.11,1.12-2.06,2.37-2.85,3.69-1.56,2.62-3.08,5.76-2.62,8.8.05.33.42.47.7.25,1.56-1.22,3.23-2.26,5.16-2.93,2.2-.77,4.59-1.06,6.94-1.11,2.46-.05,4.86.32,7.26.75,2.12.38,4.27.67,6.41.33,1.47-.24,2.94-.89,3.67-2.13.63-1.07.54-2.4.46-3.56ZM59.82,212.39c-1.83,1.16-4.44.95-6.52.67-1.97-.27-3.89-.71-5.87-.91-2.14-.21-4.32-.17-6.45.11-3.35.45-6.22,1.66-8.82,3.55-.14-2.77,1.29-5.54,2.7-7.92.76-1.28,1.72-2.44,2.78-3.52,1-1.02,2.37-1.56,3.43-2.5.17-.15.13-.46-.09-.56-1.5-.64-3.24-.44-4.84-.41-2.1.03-4.25-.38-6.27-.89-2.09-.53-4.27-1.28-6.03-2.48-1.12-.76-1.64-1.88-2.17-3,1.62,1.01,3.8,1.51,5.6,1.77,3.49.5,7.06-.47,10.35-1.42,1.27-.37,2.52-.74,3.83-.98,1.3-.24,2.63-.39,3.95-.52,1.56-.16,4.83-.3,4.93-.3,3.1-.05,5.98.9,8.13,2.98.95.92,1.79,2.07,2.25,3.27.2.53.32,1.09.38,1.67-.28-.35-.62-.66-1.07-.8-.32-.1-.52.38-.21.5.63.24.98.88,1.35,1.38,0,.32,0,.63,0,.95-.37-.55-.86-1.04-1.43-1.38-.28-.17-.6.24-.34.43.75.54,1.37,1.31,1.73,2.13,0,.07,0,.15,0,.22,0,.17,0,.34,0,.51-.37-.48-.82-.92-1.25-1.36-.26-.27-.65.13-.41.4.63.71,1.28,1.35,1.68,2.17,0,.31.02.63.04.94-.4-.71-.89-1.3-1.47-1.9-.22-.22-.66.1-.45.33.8.9,1.82,2.06,2,3.27-.8-1.28-2.29-2.29-3.46-3.15-1.86-1.36-3.87-2.51-5.97-3.51-.77-.37-1.53-.76-2.13-1.34-.77-.73-.74-1.74-.37-2.64.1-.25-.37-.42-.48-.17-.63,1.4-.4,2.63.89,3.63,1.37,1.06,3.19,1.69,4.7,2.58,1.16.68,2.28,1.43,3.35,2.23.04.03.07.05.11.08-.1,0-.19,0-.28.02-.31.03-.63.02-.94-.02-.37-.04-.53.47-.14.53.42.07.82.09,1.25.04.26-.03.49-.04.72-.11.35.27.69.55,1.01.85-.22.3-.84.43-1.16.52-.73.2-1.62.25-2.37.15-.38-.05-.54.47-.15.54.96.19,3.39.19,4.12-.78.18.19.36.39.52.6.07.1.14.2.21.31-1.02,1.21-3.03,2.1-4.71,1.88-.39-.05-.54.48-.15.55,1.09.2,2.12-.16,3.13-.51.82-.29,1.47-.76,2-1.37.12.29.19.6.2.91-.18.7-.55,1.33-1.28,1.79Z"/>
        <path class="cls-2" d="M230.2,192.72c.16,0,7.59.37,10.87,1.32,3.66,1.06,7.38,2.27,11.28,2.05,2.13-.12,6.11-1.19,7.49-2.75-.87,1.42-1.17,3-2.51,4.11-1.11.92-2.55,1.55-3.92,2.06-2.58.96-5.41,1.56-8.19,1.74-1.62.1-4.02-.3-5.48.39.85.8,2.14,1.25,3.06,2.14,1.56,1.5,2.88,3.17,3.82,5.06,1.21,2.4,2.56,4.97,2.08,7.72-2.39-1.88-4.52-3.02-7.72-3.67-3.34-.67-6.86-.62-10.21-.05-2.7.46-5.81,1.21-8.53.55-4.47-1.09-3.19-4.17-3.19-7.44,0-2.04-.29-4.77.37-6.71,0,0,2.48-6.81,10.81-6.51Z"/>
        <path class="cls-6" d="M259.58,193.13c-.85.91-2.12,1.43-3.32,1.84-1.21.41-2.5.7-3.78.81-3.68.31-7.34-.85-10.8-1.87-2.25-.66-4.6-.92-6.95-1.15-1.43-.13-2.86-.25-4.3-.3-.06-.05-.15-.09-.25-.1-4.83-.19-9.24,2.32-11.07,6.44-1.12,2.53-.39,5.53-.54,8.18-.07,1.29-.27,2.6.04,3.88.28,1.18,1.2,2.01,2.36,2.51.3.16.61.31.91.46.15.07.28.03.37-.05,1.68.38,3.5.25,5.19,0,2.58-.38,5.08-.92,7.71-1,2.59-.08,5.21.21,7.67.96,2.1.64,3.93,1.78,5.6,3.08.21.16.63.12.68-.18.47-3.07-1.01-6.01-2.49-8.68-.75-1.35-1.73-2.58-2.81-3.72-.53-.57-1.09-1.07-1.76-1.51-.51-.34-1.06-.63-1.56-.98,1.57-.44,3.42-.06,5.02-.17,2.19-.15,4.36-.58,6.44-1.21,1.93-.58,3.87-1.35,5.43-2.55,1.46-1.12,1.89-2.86,2.76-4.33.18-.3-.28-.63-.53-.36ZM256.52,197.64c-1.7,1.16-3.87,1.84-5.89,2.38-2.02.54-4.17.9-6.27.89-1.62,0-3.32-.23-4.84.42-.23.1-.23.42-.06.56.99.89,2.29,1.39,3.25,2.32,1.09,1.06,2.03,2.23,2.83,3.49.8,1.26,1.44,2.65,2.01,4.01.55,1.32.9,2.71.82,4.11-1.28-.95-2.64-1.78-4.16-2.39-1.94-.78-4.04-1.14-6.14-1.32-2.38-.21-4.78-.04-7.13.32-2.29.36-4.54.9-6.88.83-1.72-.06-3.85-.58-4.51-2.21-.05-.12-.08-.23-.12-.35,0-.33.08-.67.21-.99.51.59,1.14,1.03,1.93,1.33,1.01.39,2.11.73,3.21.53.34-.06.25-.6-.1-.55-1.71.23-3.72-.63-4.77-1.87.03-.05.06-.1.09-.15.18-.28.39-.54.62-.78.71.98,3.2.97,4.15.79.33-.06.24-.59-.1-.55-.66.09-1.28.05-1.93-.09-.43-.09-1.39-.13-1.68-.59.33-.29.68-.57,1.03-.84.25.07.52.08.8.11.4.05.79.01,1.18-.05.33-.05.24-.57-.09-.53-.29.03-.58.05-.87.04-.13,0-.27,0-.42-.02,1.03-.79,2.12-1.51,3.24-2.19,1.57-.95,3.4-1.6,4.87-2.67,1.31-.96,1.58-2.23.96-3.62-.12-.28-.62-.15-.5.14.36.88.37,1.78-.29,2.53-.53.61-1.34,1.01-2.08,1.37-2.13,1.04-4.15,2.18-6.06,3.54-1.27.91-2.74,1.93-3.53,3.27.13-1.21,1.17-2.4,1.97-3.3.23-.26-.17-.63-.42-.37-.56.57-1.05,1.14-1.43,1.82.02-.3.02-.6.02-.91.41-.81,1.06-1.44,1.67-2.14.24-.27-.17-.64-.43-.38-.44.45-.9.89-1.27,1.39,0-.22-.02-.45-.03-.67.34-.83.97-1.65,1.72-2.19.29-.21.01-.65-.31-.45-.59.35-1.09.86-1.46,1.44,0-.32,0-.65,0-.97.37-.48.72-1.17,1.33-1.41.34-.13.2-.63-.17-.52-.46.14-.8.46-1.08.82.08-.69.24-1.36.52-1.96.61-1.31,1.53-2.5,2.65-3.48,2.06-1.8,4.83-2.55,7.63-2.5.1,0,.18-.03.24-.07,1.5.08,3,.21,4.5.35,2.75.27,5.33.77,7.97,1.53,3.28.95,6.79,1.87,10.27,1.43,1.81-.23,4.01-.74,5.65-1.76-.56,1.16-1.11,2.28-2.31,3.1Z"/>
        <path class="cls-2" d="M229.05,192.12c-.85-2.74-1.54-5.52-2.14-8.31-.72-3.33.54-7.43-5.08-5.97-2.81.73-5.35,2.11-8.05,3.11-3.93,1.45-7,1.44-10.99,2.16-2.21.4-4.28,1.28-6.5,1.63-4.3.68-8.79,1.43-13.11,1.95-7.69.94-15.45.73-23.16,1.45-2.9.27-5.81.26-8.74.26-2.05,0-4.11.23-6.16.18-1.52-.04-3.71-.17-5.13-.14h0c-1.56.04-3.23.1-4.59.14-2.05.05-4.11-.18-6.16-.18-2.93,0-5.84.01-8.74-.26-7.71-.72-15.47-.51-23.16-1.45-4.33-.53-8.81-1.28-13.11-1.95-2.22-.35-4.29-1.23-6.5-1.63-3.99-.72-7.06-.7-10.99-2.16-2.7-1-5.23-2.37-8.05-3.11-5.61-1.46-4.36,2.63-5.08,5.97-.6,2.79-1.29,5.57-2.14,8.31-.79,2.56-2.21,4.79-2.6,7.34.59-3.92,6.12-2.83,8.62-1.55,4.5,2.31,10.3,2.57,15.28,3.4,6.9,1.14,13.84,2.03,20.77,3.05,11.3,1.67,23.1,2.8,34.59,2.81,1.99,0,7.78.23,11.53.28h0c.19,0,.39,0,.6,0,.21,0,.41,0,.6,0,0,0,0,0,0,0,3.75-.05,9.54-.28,11.54-.28,11.48,0,23.29-1.13,34.59-2.81,6.92-1.03,13.87-1.91,20.77-3.05,4.99-.83,10.78-1.1,15.28-3.4,2.5-1.28,8.03-2.37,8.62,1.55-.39-2.55-1.81-4.78-2.6-7.34Z"/>
        <path class="cls-6" d="M232.03,199.46s-.01-.06-.02-.09c0,0,0,0,0,0,0,0,0-.02,0-.03-.34-1.97-1.21-3.77-1.97-5.63-.86-2.1-1.39-4.32-1.94-6.5-.44-1.75-.89-3.51-1.04-5.3-.09-1.06-.11-2.19-.55-3.2-1.26-2.85-5.62-1.07-7.71-.25-2.18.85-4.26,1.89-6.51,2.59-2.12.65-4.33.93-6.53,1.23-2.26.3-4.42.74-6.6,1.37-2.3.67-4.67.98-7.05,1.36-4.99.79-9.97,1.51-15.03,1.83-5.08.32-10.17.37-15.25.75-2.52.19-5.02.38-7.55.4-2.48.02-4.95.08-7.43.17-2.3.08-4.59-.16-6.89-.12-.04,0-.08,0-.11.01-2.08.05-4.16.18-6.23.12-2.48-.07-4.94-.15-7.43-.17-5.06-.04-10.11-.6-15.17-.8-5.13-.2-10.25-.43-15.34-1.1-2.45-.32-4.88-.7-7.32-1.09-2.37-.37-4.74-.69-7.05-1.36-2.23-.64-4.43-1.09-6.75-1.39-2.16-.29-4.3-.59-6.38-1.21-2.31-.68-4.44-1.78-6.67-2.65-1.63-.64-3.52-1.37-5.33-1.2-2.56.24-2.59,2.93-2.74,4.73-.15,1.79-.61,3.55-1.04,5.3-.54,2.19-1.09,4.39-1.94,6.5-.74,1.87-1.65,3.67-1.98,5.65-.07.43.64.6.72.16.03-.15.06-.29.1-.43.76,1.46,2.78,2.57,4.46,2.69.33.03.39-.48.06-.53-1.55-.24-3.58-1.21-4.16-2.65-.02-.05-.06-.09-.1-.12.11-.19.24-.35.38-.5.15.24.36.41.59.61.36.31.65.66,1.03.95.71.54,1.58.85,2.5.92.34.03.38-.47.06-.53-.88-.17-1.62-.42-2.33-.94-.44-.33-1.12-.89-1.4-1.36.23-.14.48-.26.74-.34.03.05.08.1.16.11.44.11.78.66,1.15.9.56.36,1.15.48,1.77.71.35.13.64-.31.29-.48-.67-.32-1.38-.43-1.97-.89-.22-.17-.4-.37-.62-.52,1.25-.16,2.71.1,3.88.46,1.57.49,2.97,1.33,4.55,1.84,2.03.65,4.15,1.02,6.27,1.34,9.61,1.43,19.23,2.84,28.85,4.21,8.73,1.24,17.54,2.1,26.37,2.4,3.27.11,6.55.09,9.82.18,2.8.08,5.6.18,8.4.17,3.23.02,6.46-.11,9.68-.19,4.06-.1,8.11-.09,12.16-.29,10.04-.49,19.93-1.84,29.85-3.25,4.35-.62,8.7-1.22,13.04-1.89,3.86-.6,7.76-1.05,11.59-1.77,1.83-.34,3.64-.81,5.36-1.5,1.19-.48,2.26-1.08,3.51-1.42,1-.27,2.19-.43,3.24-.29-.22.15-.41.35-.62.53-.56.48-1.32.57-1.97.89-.3.14-.07.61.24.5.58-.21,1.17-.34,1.7-.65.44-.25.8-.87,1.29-.99.07-.02.12-.06.15-.1.26.08.51.2.74.34-.3.52-1.06,1.11-1.54,1.47-.65.48-1.4.68-2.2.83-.33.06-.24.56.09.53.89-.07,1.73-.38,2.43-.88.35-.25.64-.55.94-.85.25-.26.54-.46.73-.75.15.15.28.31.39.5-.05.03-.08.07-.11.13-.58,1.44-2.62,2.4-4.17,2.64-.33.05-.24.55.09.53,1.67-.13,3.68-1.24,4.44-2.69.03.11.06.23.08.35.08.44.84.43.77-.02ZM226.35,196.52c-1.23.2-2.42.56-3.52,1.11-1.91.96-3.99,1.55-6.11,1.98-2.15.44-4.35.7-6.53,1-2.26.31-4.51.7-6.77,1.05-5.08.78-10.18,1.46-15.26,2.2-9.3,1.36-18.62,2.43-28.03,2.83-3.64.15-7.29.13-10.93.24-3,.09-6,.2-9,.25-3.16-.05-6.32-.18-9.48-.27-4.06-.11-8.11-.1-12.16-.3-10.1-.5-20.06-1.88-30.05-3.3-4.72-.67-9.44-1.32-14.15-2.07-4.02-.64-8.14-1.01-12.1-1.96-1.8-.44-3.41-1.13-5.07-1.87-1.1-.49-2.31-.81-3.53-.94-1.41-.16-2.81.06-3.8.75.1-.27.2-.53.31-.8.72-.53,1.78-.76,2.69-.85.84-.08,1.8-.13,2.61.1.38.11.51-.42.15-.54-.95-.32-2.13-.25-3.11-.1-.65.09-1.37.24-1.98.53.21-.51.43-1.01.64-1.52.57-.12,1.1-.35,1.69-.46.92-.17,1.9-.12,2.82,0,.38.05.53-.47.15-.53-.93-.16-1.85-.2-2.8-.08-.56.07-1.07.23-1.58.39.17-.45.33-.9.48-1.35.53-.14,1.01-.31,1.6-.36.87-.07,1.74.13,2.56.34.39.1.53-.44.15-.55-.81-.22-1.61-.38-2.45-.37-.61,0-1.12.16-1.66.32.16-.53.31-1.06.46-1.6.06,0,.11-.03.16-.07.37-.32,1.14-.4,1.64-.46.74-.09,1.52.18,2.23.35.36.08.49-.41.14-.51-.85-.25-1.7-.48-2.6-.36-.51.07-.96.12-1.37.33.16-.64.32-1.27.48-1.9.01-.04.02-.09.03-.13.03-.02.07-.05.09-.08.67-.08,1.3-.23,2-.21.86.02,1.73.23,2.5.58.35.16.64-.32.29-.49-.72-.35-1.48-.58-2.29-.65-.87-.07-1.62.06-2.43.2.14-.56.27-1.13.4-1.7.05,0,.1-.03.14-.08.47-.46,1.92-.1,2.47,0,.72.12,1.43.34,2.11.56.31.1.52-.38.21-.49-.97-.36-1.94-.62-2.98-.74-.57-.07-1.28-.18-1.82.05.12-.63.21-1.26.27-1.9,0-.03,0-.05,0-.08.22-.04.44-.1.67-.12.47-.05,1.01.02,1.46.09.95.15,1.84.57,2.72.9.36.14.66-.33.3-.49-.93-.41-1.85-.79-2.86-.99-.81-.16-1.5-.07-2.25.06.02-.32.04-.64.08-.96.08-.02.15-.08.19-.17.1-.23,1.64-.25,1.79-.25.99-.01,1.97.34,2.86.71.34.14.63-.31.29-.47-1.14-.54-2.38-.88-3.68-.79-.33.02-.9.04-1.31.2.08-.31.18-.61.34-.89.65-1.2,2.34-.92,3.49-.65,2.32.54,4.47,1.61,6.63,2.52,2.05.86,4.15,1.5,6.37,1.89,2.17.38,4.38.57,6.54.98,2.31.44,4.47,1.3,6.8,1.67,2.43.38,4.86.78,7.29,1.14,4.91.74,9.82,1.23,14.8,1.45,2.54.12,5.09.2,7.63.32,2.54.12,5.06.37,7.6.53,2.51.16,5.02.13,7.54.14,2.39.01,4.75.21,7.13.14,1.15-.04,2.29-.07,3.44-.09.07,0,.13,0,.19,0,1.9,0,3.8.16,5.7.15,2.47,0,4.93-.18,7.4-.19,5.07-.02,10.1-.57,15.16-.78,5.08-.21,10.16-.37,15.2-1.01,2.38-.3,4.76-.66,7.13-1.03,2.38-.37,4.83-.64,7.16-1.22,1.08-.27,2.14-.62,3.22-.91,1.21-.33,2.46-.52,3.71-.7,2.08-.3,4.18-.52,6.22-1.01,2.23-.53,4.3-1.46,6.38-2.35,1.92-.82,4.09-1.83,6.25-1.87,1.29-.02,1.88.76,2.16,1.78-.42-.17-1.01-.19-1.34-.21-1.3-.09-2.53.25-3.67.8-.34.16-.03.6.31.46.84-.35,1.69-.61,2.6-.69.18-.02,1.91-.04,2.04.25.04.1.13.16.22.17.04.31.07.63.09.94-.3-.07-.59-.15-.93-.15-.47,0-.92.03-1.38.1-1,.15-1.95.59-2.86.99-.31.14-.07.63.25.51.83-.32,1.65-.66,2.52-.87.49-.12.98-.14,1.48-.14.33,0,.63.08.94.13.02.47.04.91.1,1.26.03.23.07.46.11.69-.51-.2-1.18-.09-1.72-.04-1.03.09-2.03.37-2.99.73-.34.13-.19.63.17.51.69-.22,1.4-.42,2.12-.56.55-.11,2.01-.43,2.47.02.03.03.06.05.1.06.12.57.25,1.13.39,1.69-.71-.12-1.38-.24-2.14-.21-.9.04-1.76.3-2.55.68-.35.17-.03.63.32.47.78-.36,1.63-.53,2.5-.58.69-.04,1.31.12,1.97.21.02.02.04.04.06.06.18.69.37,1.38.55,2.06-.38-.19-.81-.22-1.3-.32-.9-.18-1.84.11-2.68.36-.35.1-.19.58.17.5.66-.15,1.3-.33,1.99-.35.53-.02,1.49.15,1.87.48.05.04.11.07.16.07.15.54.31,1.07.48,1.6-.46-.13-.91-.26-1.43-.32-.92-.09-1.86.12-2.73.36-.38.11-.21.64.18.54.76-.19,1.5-.33,2.29-.34.71-.01,1.26.2,1.89.37.15.46.31.91.48,1.36-.59-.18-1.16-.35-1.81-.43-.87-.1-1.75-.04-2.61.11-.33.06-.24.58.09.54.88-.12,1.75-.15,2.63-.05.69.08,1.29.37,1.95.5.2.5.4,1.01.62,1.51-.61-.29-1.33-.43-1.97-.53-.99-.14-2.16-.21-3.11.11-.36.12-.2.64.18.53.83-.24,1.75-.15,2.61-.1.89.05,1.95.33,2.65.84.1.26.21.52.3.78-1.12-.76-2.74-.91-4.28-.66Z"/>
        <g>
          <path class="cls-5" d="M108.14,201.94c-.78-.21-1.48-.34-1.62-.35.08-.9.14-1.95.19-3.2.17,0,.38.02.55.04.23,1.9,1.12,3.07,2.81,3.25,1.5.16,2.63-.53,2.76-1.77.15-1.38-1.12-2.06-2.48-2.76-1.59-.83-3.16-1.65-2.96-3.54.22-1.99,2.16-2.97,4.37-2.73.47.05.94.15,1.47.29.66.17.99.2,1.11.22.07,0,.29.03.42.01-.07.94-.12,1.92-.15,3.01-.21,0-.42,0-.57-.03-.25-1.39-.64-2.69-2.38-2.88-1.28-.14-2.37.39-2.5,1.6-.11.98.49,1.62,2.46,2.63,1.46.75,3.14,1.7,2.93,3.65-.23,2.15-2.32,3.16-4.61,2.91-.04,0-.86-.09-1.8-.35Z"/>
          <path class="cls-5" d="M115.85,202.2c1.62-.03,1.69-.03,1.77-1.15l.51-7.38c.09-1.32,0-1.35-1.58-1.59,0-.16,0-.33.04-.51,1.2.08,1.54.14,3.53.28,2.72.19,5.2.33,5.5.35.03.78.11,1.62.21,2.55-.19,0-.4-.01-.57-.04-.5-1.41-1.26-1.94-2.85-2.05l-2.27-.16-.3,4.33.95.07c1.65.11,2,0,2.35-1.54.19-.02.42,0,.59.04-.17,1.73-.16,1.76-.18,2.06l-.11,2.1c-.17.02-.38,0-.59-.04-.11-1.68-.47-1.8-1.96-1.91l-1.11-.08-.24,3.44c-.05.71-.08,1.16-.05,1.29l2.38.17c2.01.14,2.67-.37,3.62-1.92.17,0,.37,0,.54.04-.33,1.17-.55,2.11-.7,2.81-2.06-.14-5.23-.38-6.41-.46-1.63-.11-2.17-.12-3.09-.18,0-.16,0-.33.04-.51Z"/>
          <path class="cls-5" d="M130.81,201.57c-.05,1.34-.03,1.35,1.67,1.54.03.16.02.35-.02.51-.71-.03-2.01-.1-2.67-.13-.68-.02-1.95-.04-2.69-.06-.03-.16-.02-.33.02-.51,1.67-.08,1.74-.06,1.78-1.21l.26-7.39c.05-1.32-.04-1.35-1.68-1.54-.01-.16,0-.33.02-.51.71.03,2.07.11,2.72.13.64.02,1.96.04,2.64.07.03.16.02.33-.02.51-1.66.08-1.72.07-1.76,1.21l-.26,7.39Z"/>
          <path class="cls-5" d="M136.41,203.18c1.72-.14,1.77-.13,1.77-1.27v-8.69h-1.25c-1.84,0-2.33.67-2.93,2.1-.17.02-.38.02-.56,0,.14-1.02.26-1.94.37-2.82,1.51.08,3.39.08,5.35.08s3.87,0,5.37-.08c.09.86.17,1.8.31,2.82-.19.02-.4.02-.57,0-.66-1.45-1.11-2.1-2.93-2.1h-1.23v8.48c0,1.34.03,1.35,1.77,1.48.04.16.04.35,0,.51-.73,0-2.07-.03-2.74-.03s-1.98.03-2.71.03c-.02-.16-.02-.33,0-.51Z"/>
          <path class="cls-5" d="M149.79,202.98c1.64-.23,1.66-.27,1.6-1.42l-.3-5.93c-.03-.52-.09-.68-.54-.66-.26.01-.83.11-1.59.29-.08-.17-.12-.31-.15-.5,1.68-.48,2.7-.88,4.12-1.51.13.1.22.2.3.35-.28.33-.42.99-.38,1.88l.29,5.83c.07,1.35.1,1.36,1.79,1.41.04.19.05.32.03.51-.61.03-1.15,0-2.52.08-1.34.07-1.92.14-2.63.18-.04-.19-.05-.35-.03-.51Z"/>
          <path class="cls-5" d="M156.05,198.71c-.29-3.47,1.83-7.56,6.91-7.98.09,0,.36-.03.59-.02.02.21.01.38-.02.59-.12,0-.3,0-.63.02-2.88.24-4.53,2.32-4.9,5.04.73-.51,1.64-.82,2.56-.9,1.89-.16,3.81.77,4.02,3.24.22,2.63-1.75,4.1-3.83,4.28-2.1.17-4.42-.96-4.7-4.27ZM157.96,198.34c.25,3.06,1.6,4.13,2.84,4.03,1-.08,2.03-.97,1.86-3.04-.18-2.24-1.51-3.07-2.86-2.96-.61.05-1.28.3-1.87.75,0,.4,0,.81.03,1.23Z"/>
          <path class="cls-5" d="M168.95,201.96c-1.31.16-2.21.27-2.69.34-.09-.15-.12-.26-.14-.42,3.79-3.48,4.8-5.55,4.61-7.12-.16-1.33-1.24-1.87-2.5-1.71-.86.1-1.69.51-2.34,1.07-.13-.1-.27-.21-.37-.34.86-1.1,2.03-1.74,3.32-1.9,1.78-.22,3.5.57,3.69,2.13.23,1.86-1.47,3.77-4.33,6.67,1.88-.23,3.49-.47,3.53-.48.91-.14,1.06-.18,1.63-1.56.14-.02.36-.03.54.01-.17.92-.28,1.91-.35,2.77-1.42.14-3.25.36-4.61.53Z"/>
          <path class="cls-5" d="M180,200.63c-2.67.43-4.42-1.47-4.88-4.29-.43-2.7.46-5.34,3.4-5.81,2.9-.46,4.41,1.69,4.83,4.32.47,2.95-.62,5.35-3.35,5.79ZM176.9,195.76c.36,2.25,1.31,4.54,3.13,4.25,1.7-.27,1.92-2.37,1.56-4.65-.36-2.25-1.28-4.5-3.12-4.2-1.7.27-1.92,2.39-1.57,4.6Z"/>
        </g>
      </g>
    </g>
  </g>
</svg>